name Walk8.mot
datacolumns 19
datarows 25
range 2.26900000 2.29300000
endheader

                time	   L_ground_force_vx	   L_ground_force_vy	   L_ground_force_vz	   L_ground_force_px	   L_ground_force_py	   L_ground_force_pz	   R_ground_force_vx	   R_ground_force_vy	   R_ground_force_vz	   R_ground_force_px	   R_ground_force_py	   R_ground_force_pz	   L_ground_torque_x	   L_ground_torque_y	   L_ground_torque_z	   R_ground_torque_x	   R_ground_torque_y	   R_ground_torque_z	
          2.26900000	          0.00000015	          0.00000062	         -0.00000002	         -0.00000000	          0.00000000	         -0.00000000	         17.54029364	         67.61518926	          4.41775826	          0.11581024	          0.00000000	          0.04061524	          0.00000000	          0.00000000	          0.00000000	          0.00000000	         -4.59653125	          0.00000000	
          2.27000000	          0.00000014	          0.00000059	         -0.00000002	         -0.00000000	          0.00000000	         -0.00000000	         16.26101885	         62.16619624	          4.30485863	          0.11198570	          0.00000000	          0.03922808	          0.00000000	          0.00000000	          0.00000000	          0.00000000	         -4.31141332	          0.00000000	
          2.27100000	          0.00000013	          0.00000055	         -0.00000002	         -0.00000000	          0.00000000	         -0.00000000	         15.02925433	         56.94835510	          4.18527017	          0.10809007	          0.00000000	          0.03782024	          0.00000000	          0.00000000	          0.00000000	          0.00000000	         -4.03438943	          0.00000000	
          2.27200000	          0.00000012	          0.00000052	         -0.00000002	         -0.00000000	          0.00000000	         -0.00000000	         13.84551966	         51.96059284	          4.06001160	          0.10413435	          0.00000000	          0.03639536	          0.00000000	          0.00000000	          0.00000000	          0.00000000	         -3.76575593	          0.00000000	
          2.27300000	          0.00000010	          0.00000048	         -0.00000002	         -0.00000000	          0.00000000	         -0.00000000	         12.71015070	         47.20139538	          3.93004462	          0.10013091	          0.00000000	          0.03495756	          0.00000000	          0.00000000	          0.00000000	          0.00000000	         -3.50577306	          0.00000000	
          2.27400000	          0.00000009	          0.00000045	         -0.00000002	         -0.00000000	          0.00000000	         -0.00000000	         11.62329970	         42.66881869	          3.79626883	          0.09609364	          0.00000000	          0.03351143	          0.00000000	          0.00000000	          0.00000000	          0.00000000	         -3.25466330	          0.00000000	
          2.27500000	          0.00000008	          0.00000042	         -0.00000001	         -0.00000000	          0.00000000	         -0.00000000	         10.58493851	         38.36047846	          3.65951928	          0.09203775	          0.00000000	          0.03206208	          0.00000000	          0.00000000	          0.00000000	          0.00000000	         -3.01260960	          0.00000000	
          2.27600000	          0.00000007	          0.00000039	         -0.00000001	         -0.00000000	          0.00000000	         -0.00000000	          9.59486544	         34.27350874	          3.52056786	          0.08797909	          0.00000000	          0.03061487	          0.00000000	          0.00000000	          0.00000000	          0.00000000	         -2.77975293	          0.00000000	
          2.27700000	          0.00000006	          0.00000036	         -0.00000001	         -0.00000000	          0.00000000	         -0.00000000	          8.65271575	         30.40451858	          3.38012727	          0.08393306	          0.00000000	          0.02917503	          0.00000000	          0.00000000	          0.00000000	          0.00000000	         -2.55619067	          0.00000000	
          2.27800000	          0.00000005	          0.00000033	         -0.00000001	         -0.00000000	          0.00000000	         -0.00000000	          7.75797494	         26.74959449	          3.23885481	          0.07991388	          0.00000000	          0.02774735	          0.00000000	          0.00000000	          0.00000000	          0.00000000	         -2.34197736	          0.00000000	
          2.27900000	          0.00000004	          0.00000031	         -0.00000001	         -0.00000000	          0.00000000	         -0.00000000	          6.90999314	         23.30434677	          3.09735504	          0.07593445	          0.00000000	          0.02633622	          0.00000000	          0.00000000	          0.00000000	          0.00000000	         -2.13712756	          0.00000000	
          2.28000000	          0.00000004	          0.00000028	         -0.00000001	         -0.00000000	          0.00000000	         -0.00000000	          6.10799903	         20.06396665	          2.95618199	          0.07200643	          0.00000000	          0.02494555	          0.00000000	          0.00000000	          0.00000000	          0.00000000	         -1.94161924	          0.00000000	
          2.28100000	          0.00000003	          0.00000026	         -0.00000001	         -0.00000000	          0.00000000	         -0.00000000	          5.35111309	         17.02328009	          2.81584133	          0.06814029	          0.00000000	          0.02357885	          0.00000000	          0.00000000	          0.00000000	          0.00000000	         -1.75539692	          0.00000000	
          2.28200000	          0.00000002	          0.00000023	         -0.00000001	         -0.00000000	          0.00000000	         -0.00000000	          4.63836014	         14.17679834	          2.67679261	          0.06434538	          0.00000000	          0.02223926	          0.00000000	          0.00000000	          0.00000000	          0.00000000	         -1.57837477	          0.00000000	
          2.28300000	          0.00000002	          0.00000021	         -0.00000001	         -0.00000000	          0.00000000	         -0.00000000	          3.96868112	         11.51876551	          2.53945142	          0.06062999	          0.00000000	          0.02092953	          0.00000000	          0.00000000	          0.00000000	          0.00000000	         -1.41043946	          0.00000000	
          2.28400000	          0.00000001	          0.00000019	         -0.00000001	         -0.00000000	          0.00000000	         -0.00000000	          3.34094428	          9.04320297	          2.40419155	          0.05700138	          0.00000000	          0.01965207	          0.00000000	          0.00000000	          0.00000000	          0.00000000	         -1.25145299	          0.00000000	
          2.28500000	          0.00000001	          0.00000017	         -0.00000001	         -0.00000000	          0.00000000	         -0.00000000	          2.75395560	          6.74395090	          2.27134716	          0.05346590	          0.00000000	          0.01840896	          0.00000000	          0.00000000	          0.00000000	          0.00000000	         -1.10125526	          0.00000000	
          2.28600000	          0.00000000	          0.00000015	         -0.00000001	         -0.00000000	          0.00000000	         -0.00000000	          2.20646857	          4.61470700	          2.14121486	          0.05002899	          0.00000000	          0.01720199	          0.00000000	          0.00000000	          0.00000000	          0.00000000	         -0.95966658	          0.00000000	
          2.28700000	         -0.00000000	          0.00000013	         -0.00000000	         -0.00000000	          0.00000000	         -0.00000000	          1.69719345	          2.64906238	          2.01405579	          0.04669524	          0.00000000	          0.01603263	          0.00000000	          0.00000000	          0.00000000	          0.00000000	         -0.82649001	          0.00000000	
          2.28800000	         -0.00000001	          0.00000011	         -0.00000000	         -0.00000000	          0.00000000	         -0.00000000	          1.22480571	          0.84053487	          1.89009767	          0.04346850	          0.00000000	          0.01490212	          0.00000000	          0.00000000	          0.00000000	          0.00000000	         -0.70151354	          0.00000000	
          2.28900000	         -0.00000001	          0.00000010	         -0.00000000	         -0.00000000	          0.00000000	         -0.00000000	          0.78795410	         -0.81740030	          1.76953675	          0.04035185	          0.00000000	          0.01381141	          0.00000000	          0.00000000	          0.00000000	          0.00000000	         -0.58451224	          0.00000000	
          2.29000000	         -0.00000002	          0.00000008	         -0.00000000	         -0.00000000	          0.00000000	         -0.00000000	          0.38526793	         -2.33128214	          1.65253975	          0.03734771	          0.00000000	          0.01276125	          0.00000000	          0.00000000	          0.00000000	          0.00000000	         -0.47525015	          0.00000000	
          2.29100000	         -0.00000002	          0.00000007	         -0.00000000	         -0.00000000	          0.00000000	         -0.00000000	          0.01536398	         -3.70763807	          1.53924576	          0.03445787	          0.00000000	          0.01175216	          0.00000000	          0.00000000	          0.00000000	          0.00000000	         -0.37348211	          0.00000000	
          2.29200000	         -0.00000002	          0.00000006	         -0.00000000	         -0.00000000	          0.00000000	         -0.00000000	         -0.32314726	         -4.95296018	          1.42976805	          0.03168352	          0.00000000	          0.01078445	          0.00000000	          0.00000000	          0.00000000	          0.00000000	         -0.27895551	          0.00000000	
          2.29300000	         -0.00000002	          0.00000004	         -0.00000000	         -0.00000000	          0.00000000	         -0.00000000	         -0.63165576	         -6.07368374	          1.32419582	          0.02902534	          0.00000000	          0.00985828	          0.00000000	         -0.00000000	          0.00000000	          0.00000000	         -0.19141185	          0.00000000	
